<svg width="187" height="105" viewBox="0 0 187 105" fill="none" xmlns="http://www.w3.org/2000/svg">
<path d="M64.7002 46.4729H68.0767V60.1229H64.7002V46.4729ZM69.4231 54.9884C69.4231 51.6074 71.5268 49.581 74.6824 49.581C77.838 49.581 79.9417 51.6074 79.9417 54.9884C79.9417 58.3694 77.9116 60.4169 74.6824 60.4169C71.4532 60.4169 69.4231 58.4429 69.4231 54.9884ZM76.5968 54.9884C76.5968 53.1299 75.871 52.038 74.7139 52.038C73.5569 52.038 72.8416 53.0879 72.8416 54.9884C72.8416 56.8889 73.5569 57.9284 74.7139 57.9284C75.871 57.9284 76.6178 56.8889 76.6178 54.999L76.5968 54.9884ZM81.2881 60.8264H84.5488C84.6973 61.1769 84.9565 61.4692 85.287 61.6588C85.6175 61.8484 86.001 61.9248 86.3791 61.8764C87.6729 61.8764 88.3461 61.1834 88.3461 60.1544V58.2644H88.3566C88.0779 58.853 87.6274 59.3435 87.0641 59.6715C86.5009 59.9994 85.8513 60.1495 85.201 60.1019C82.7291 60.1019 81.0882 58.2224 81.0882 54.9884C81.0882 51.7544 82.6555 49.7384 85.2957 49.7384C85.9627 49.7028 86.6243 49.8746 87.1895 50.23C87.7546 50.5854 88.1955 51.107 88.4512 51.7229H88.3566V49.8225H91.7015V60.0494C91.7015 62.5169 89.5136 64.0604 86.2949 64.0604C83.3707 64.0499 81.4984 62.7164 81.3091 60.8369L81.2881 60.8264ZM88.3566 54.9884C88.3566 53.3399 87.5992 52.3005 86.4001 52.3005C85.201 52.3005 84.4647 53.3504 84.4647 54.9884C84.4647 56.6264 85.1905 57.5924 86.4001 57.5924C87.6098 57.5924 88.3566 56.6999 88.3566 54.9884ZM93.0374 54.9884C93.0374 51.6074 95.1411 49.581 98.2967 49.581C101.452 49.581 103.556 51.6074 103.556 54.9884C103.556 58.3694 101.515 60.4169 98.2967 60.4169C95.078 60.4169 93.0584 58.4429 93.0584 54.9884H93.0374ZM100.211 54.9884C100.211 53.1299 99.4748 52.038 98.3282 52.038C97.1817 52.038 96.4559 53.0879 96.4559 54.9884C96.4559 56.8889 97.1712 57.9284 98.3282 57.9284C99.4853 57.9284 100.232 56.8889 100.232 54.999L100.211 54.9884ZM104.923 47.334C104.909 46.9906 104.997 46.6508 105.178 46.3581C105.358 46.0654 105.622 45.8333 105.936 45.6916C106.249 45.5499 106.598 45.5052 106.938 45.5631C107.277 45.621 107.591 45.7789 107.84 46.0166C108.088 46.2542 108.26 46.5607 108.333 46.8966C108.406 47.2324 108.376 47.5824 108.248 47.9013C108.12 48.2203 107.899 48.4937 107.614 48.6863C107.329 48.879 106.993 48.9821 106.648 48.9825C106.428 48.988 106.21 48.9499 106.004 48.8704C105.799 48.7908 105.612 48.6714 105.453 48.519C105.295 48.3666 105.168 48.1843 105.081 47.9827C104.994 47.7811 104.947 47.5641 104.944 47.3445L104.923 47.334ZM104.923 49.8119H108.342V60.1649H104.976L104.923 49.8119ZM120.638 54.9884C120.638 58.3589 119.124 60.3119 116.546 60.3119C115.887 60.3526 115.23 60.1901 114.666 59.8465C114.102 59.5029 113.657 58.9946 113.391 58.3904H113.328V63.4934H109.951V49.8435H113.307V51.6914H113.37C113.627 51.0754 114.067 50.5533 114.632 50.1963C115.197 49.8393 115.858 49.6647 116.525 49.6965C119.176 49.6755 120.701 51.618 120.701 54.999L120.638 54.9884ZM117.199 54.9884C117.199 53.3504 116.431 52.2899 115.242 52.2899C114.054 52.2899 113.307 53.3399 113.296 54.9884C113.286 56.6369 114.054 57.6764 115.242 57.6764C116.431 57.6764 117.262 56.6999 117.262 54.999L117.199 54.9884ZM126.402 49.5704C129.232 49.5704 130.989 50.904 131.01 53.046H127.928C127.928 52.3005 127.307 51.8384 126.381 51.8384C125.456 51.8384 125.014 52.1955 125.014 52.731C125.014 53.2665 125.403 53.4345 126.182 53.592L128.348 54.0329C130.452 54.4739 131.294 55.3139 131.294 56.8784C131.294 58.9784 129.348 60.4064 126.455 60.4064C123.562 60.4064 121.68 59.0204 121.543 56.9099H124.814C124.909 57.6764 125.519 58.1279 126.508 58.1279C127.496 58.1279 127.959 57.8129 127.959 57.2564C127.959 56.6999 127.644 56.6054 126.834 56.4374L124.877 56.0279C122.847 55.5974 121.785 54.5369 121.785 52.9514C121.848 50.8935 123.615 49.581 126.466 49.581L126.402 49.5704ZM142.601 60.1544H139.33V58.2119H139.267C139.084 58.8599 138.685 59.4262 138.136 59.8174C137.587 60.2087 136.921 60.4017 136.248 60.3644C135.739 60.381 135.233 60.29 134.763 60.0975C134.292 59.905 133.867 59.6153 133.517 59.2474C133.166 58.8796 132.897 58.4418 132.728 57.963C132.559 57.4842 132.493 56.975 132.535 56.4689V49.8225H135.911V55.7444C135.911 56.9624 136.553 57.6239 137.605 57.6239C137.852 57.6221 138.095 57.5674 138.319 57.4636C138.543 57.3598 138.742 57.2092 138.902 57.0221C139.063 56.835 139.181 56.6157 139.249 56.3789C139.318 56.1422 139.334 55.8936 139.298 55.6499V49.8225H142.664L142.601 60.1544ZM144.231 49.8119H147.513V51.807H147.587C147.768 51.1679 148.157 50.6068 148.692 50.2116C149.226 49.8164 149.877 49.6094 150.543 49.6229C151.211 49.565 151.876 49.7578 152.409 50.1636C152.942 50.5695 153.304 51.1592 153.425 51.8174H153.572C153.782 51.1557 154.206 50.5817 154.776 50.1849C155.347 49.788 156.033 49.5905 156.728 49.6229C157.189 49.6054 157.65 49.6854 158.078 49.8577C158.507 50.03 158.894 50.2907 159.215 50.6227C159.536 50.9548 159.783 51.3507 159.939 51.7846C160.096 52.2184 160.16 52.6805 160.125 53.1405V60.1649H156.728V54.0014C156.728 52.9514 156.233 52.3634 155.276 52.3634C155.064 52.36 154.853 52.4024 154.659 52.4877C154.465 52.5731 154.291 52.6994 154.15 52.8579C154.009 53.0165 153.904 53.2036 153.843 53.4064C153.781 53.6092 153.764 53.823 153.793 54.0329V60.1649H150.574V53.97C150.574 52.92 150.059 52.3634 149.133 52.3634C148.919 52.3617 148.706 52.4059 148.51 52.4929C148.314 52.5798 148.139 52.7077 147.997 52.8678C147.854 53.0279 147.748 53.2166 147.684 53.4212C147.621 53.6258 147.602 53.8415 147.629 54.0539V60.1649H144.253L144.231 49.8119Z" fill="#232536"/>
<path d="M58.0207 47.3656C58.0208 45.2758 57.3886 43.2346 56.2069 41.5095C55.0252 39.7845 53.3492 38.4558 51.3982 37.6977C49.4473 36.9396 47.3125 36.7874 45.2734 37.2609C43.2344 37.7345 41.3861 38.8117 39.9707 40.3516H26.8435V68.0086H54.5601V55.0831C55.6479 54.1118 56.5184 52.9225 57.1147 51.5927C57.711 50.2629 58.0197 48.8225 58.0207 47.3656ZM52.6878 47.3656C52.6898 48.367 52.3943 49.3465 51.8384 50.1802C51.2826 51.0138 50.4915 51.6642 49.5653 52.0488C48.639 52.4335 47.6193 52.5352 46.6351 52.3411C45.651 52.147 44.7466 51.6658 44.0365 50.9585C43.3264 50.2511 42.8425 49.3493 42.646 48.3673C42.4495 47.3853 42.5493 46.3672 42.9327 45.4418C43.3162 44.5164 43.966 43.7253 44.8 43.1688C45.6339 42.6122 46.6146 42.3151 47.6178 42.3151C48.9606 42.3151 50.2486 42.8469 51.1991 43.7937C52.1496 44.7406 52.685 46.0252 52.6878 47.3656ZM49.2271 62.6851H32.1764V45.6751H37.3726C37.2723 46.2331 37.2195 46.7987 37.2149 47.3656C37.2176 50.1189 38.3146 52.7586 40.2649 54.7055C42.2152 56.6523 44.8596 57.7473 47.6178 57.7501C48.157 57.7472 48.6951 57.7016 49.2271 57.6136V62.6851Z" fill="#232536"/>
</svg>
