<svg width="186" height="105" viewBox="0 0 186 105" fill="none" xmlns="http://www.w3.org/2000/svg">
<path d="M43.3347 50.7895C42.9382 51.1899 42.6346 51.6731 42.4454 52.2046C42.2562 52.7362 42.1862 53.3031 42.2403 53.865L42.2215 53.8461C42.2771 54.5074 42.1883 55.173 41.9611 55.7963C41.734 56.4196 41.3741 56.9857 40.9064 57.455C40.4388 57.9243 39.8748 58.2855 39.2537 58.5135C38.6326 58.7414 37.9694 58.8306 37.3104 58.7748L37.3292 58.7937C36.541 58.72 35.7493 58.8922 35.0621 59.2867C34.3749 59.6811 33.8256 60.2787 33.4892 60.9979C33.1528 61.7172 33.0456 62.523 33.1823 63.3056C33.3189 64.0882 33.6928 64.8094 34.2528 65.371C34.8129 65.9325 35.5319 66.3071 36.3118 66.4435C37.0917 66.5799 37.8946 66.4716 38.6109 66.1334C39.3273 65.7951 39.9222 65.2434 40.3147 64.5533C40.7071 63.8633 40.8779 63.0686 40.8038 62.2776L40.8237 62.2965C40.7681 61.6351 40.8569 60.9696 41.0841 60.3463C41.3112 59.7229 41.6712 59.1569 42.1388 58.6876C42.6064 58.2183 43.1704 57.857 43.7915 57.6291C44.4126 57.4011 45.0758 57.312 45.7348 57.3678L45.7149 57.3489C46.3588 57.407 47.007 57.301 47.5992 57.0408C48.1914 56.7806 48.7087 56.3746 49.1029 55.8604C49.4972 55.3462 49.7557 54.7404 49.8546 54.0992C49.9534 53.458 49.8894 52.8021 49.6684 52.1924C49.4474 51.5826 49.0767 51.0387 48.5905 50.6111C48.1043 50.1834 47.5184 49.8858 46.8871 49.7459C46.2558 49.606 45.5995 49.6283 44.9791 49.8108C44.3586 49.9932 43.7941 50.3298 43.3379 50.7895H43.3347Z" fill="#232536"/>
<path d="M35.6162 56.3178L35.5963 56.2989C36.1564 56.3555 36.722 56.2865 37.2523 56.0969C37.7825 55.9073 38.2642 55.6018 38.6624 55.2024C39.0606 54.8031 39.3654 54.32 39.5547 53.788C39.7441 53.2559 39.8132 52.6883 39.7572 52.1262L39.7771 52.1451C39.7215 51.4837 39.8103 50.8182 40.0375 50.1949C40.2646 49.5715 40.6245 49.0055 41.0922 48.5362C41.5598 48.0669 42.1238 47.7056 42.7449 47.4777C43.366 47.2497 44.0292 47.1606 44.6882 47.2164L44.6683 47.1975C45.4567 47.2718 46.2486 47.1002 46.9362 46.7062C47.6238 46.3122 48.1736 45.7149 48.5105 44.9957C48.8474 44.2766 48.9551 43.4707 48.8188 42.6879C48.6826 41.9052 48.309 41.1836 47.7491 40.6217C47.1893 40.0598 46.4703 39.685 45.6903 39.5482C44.9103 39.4115 44.1073 39.5195 43.3907 39.8576C42.6742 40.1958 42.079 40.7475 41.6864 41.4376C41.2938 42.1276 41.1228 42.9224 41.1969 43.7136L41.178 43.6936C41.2339 44.355 41.1451 45.0207 40.9181 45.6441C40.691 46.2675 40.331 46.8336 39.8634 47.303C39.3957 47.7723 38.8316 48.1335 38.2104 48.3614C37.5892 48.5893 36.926 48.6783 36.267 48.6223L36.2858 48.6423C35.7257 48.5857 35.1601 48.6546 34.6298 48.8443C34.0995 49.0339 33.6179 49.3394 33.2197 49.7387C32.8215 50.1381 32.5167 50.6212 32.3274 51.1532C32.138 51.6852 32.0688 52.2529 32.1249 52.815L32.106 52.7961C32.1615 53.4574 32.0725 54.1229 31.8453 54.7461C31.6181 55.3693 31.2581 55.9353 30.7905 56.4046C30.323 56.8739 29.759 57.2351 29.138 57.4631C28.517 57.6911 27.8539 57.7804 27.1949 57.7248L27.2138 57.7437C26.4254 57.6694 25.6335 57.841 24.9459 58.235C24.2583 58.629 23.7085 59.2263 23.3716 59.9454C23.0347 60.6645 22.927 61.4704 23.0633 62.2532C23.1995 63.036 23.5731 63.7576 24.1329 64.3195C24.6928 64.8813 25.4118 65.2562 26.1918 65.393C26.9718 65.5297 27.7748 65.4216 28.4913 65.0835C29.2079 64.7454 29.8031 64.1937 30.1957 63.5036C30.5883 62.8136 30.7592 62.0187 30.6852 61.2276L30.7051 61.2465C30.6495 60.5851 30.7383 59.9196 30.9655 59.2963C31.1926 58.6729 31.5525 58.1069 32.0202 57.6376C32.4878 57.1683 33.0518 56.807 33.6729 56.5791C34.294 56.3511 34.9572 56.262 35.6162 56.3178Z" fill="#232536"/>
<path d="M28.6043 54.2105C29.0009 53.8102 29.3045 53.327 29.4935 52.7954C29.6825 52.2638 29.7522 51.6968 29.6976 51.135L29.7175 51.1539C29.6618 50.4924 29.7507 49.8266 29.978 49.2032C30.2052 48.5797 30.5654 48.0135 31.0332 47.5441C31.5011 47.0748 32.0654 46.7136 32.6868 46.4858C33.3081 46.258 33.9715 46.1691 34.6307 46.2252L34.6108 46.2063C35.3989 46.2804 36.1905 46.1088 36.8778 45.7148C37.5651 45.3208 38.1145 44.7236 38.4513 44.0047C38.788 43.2858 38.8955 42.4802 38.7593 41.6977C38.623 40.9152 38.2496 40.194 37.6899 39.6323C37.1302 39.0706 36.4116 38.6958 35.6319 38.5591C34.8522 38.4224 34.0494 38.5303 33.3331 38.8682C32.6168 39.2061 32.0218 39.7576 31.6292 40.4473C31.2366 41.1371 31.0655 41.9316 31.1394 42.7224L31.1205 42.7035C31.1762 43.3649 31.0873 44.0304 30.8602 44.6538C30.633 45.2771 30.2731 45.8432 29.8055 46.3125C29.3378 46.7818 28.7738 47.143 28.1527 47.3709C27.5316 47.5989 26.8684 47.6881 26.2094 47.6322L26.2283 47.6511C25.5844 47.5932 24.9363 47.6993 24.3442 47.9596C23.752 48.2199 23.2349 48.626 22.8408 49.1403C22.4466 49.6546 22.1882 50.2604 22.0895 50.9015C21.9908 51.5427 22.0549 52.1985 22.2759 52.8082C22.497 53.4179 22.8678 53.9618 23.354 54.3893C23.8402 54.8169 24.4261 55.1144 25.0574 55.2542C25.6887 55.3941 26.3449 55.3717 26.9653 55.1893C27.5857 55.0068 28.1502 54.6702 28.6064 54.2105H28.6043Z" fill="#232536"/>
<path d="M61.0142 43.7377H64.1215V58.9133H61.0142V43.7377Z" fill="#232536"/>
<path d="M65.881 53.7169C65.8767 52.6264 66.1949 51.559 66.7955 50.6501C67.396 49.7412 68.2519 49.0317 69.2546 48.6113C70.2573 48.1909 71.3618 48.0787 72.4281 48.2887C73.4945 48.4988 74.4747 49.0218 75.2446 49.7914C76.0146 50.561 76.5396 51.5426 76.7532 52.6119C76.9668 53.6812 76.8594 54.7901 76.4445 55.7981C76.0297 56.8061 75.3261 57.6678 74.4228 58.2742C73.5196 58.8806 72.4574 59.2042 71.3707 59.2042C70.6493 59.2125 69.9336 59.0764 69.2653 58.8038C68.597 58.5312 67.9895 58.1277 67.4784 57.6168C66.9672 57.1059 66.5627 56.4979 66.2885 55.8283C66.0142 55.1587 65.8757 54.4409 65.881 53.7169ZM73.753 53.7169C73.74 53.2469 73.5893 52.791 73.3196 52.4065C73.0499 52.0219 72.6733 51.7257 72.2367 51.5547C71.8002 51.3838 71.3231 51.3459 70.8652 51.4456C70.4073 51.5453 69.9888 51.7783 69.6621 52.1154C69.3353 52.4525 69.1149 52.8787 69.0283 53.3409C68.9416 53.8031 68.9927 54.2806 69.175 54.7138C69.3573 55.147 69.6629 55.5166 70.0534 55.7765C70.4439 56.0364 70.9021 56.175 71.3707 56.175C71.6916 56.1836 72.0108 56.1254 72.3082 56.004C72.6055 55.8826 72.8746 55.7007 73.0984 55.4698C73.3223 55.2388 73.496 54.9639 73.6086 54.6622C73.7213 54.3605 73.7704 54.0386 73.753 53.7169Z" fill="#232536"/>
<path d="M89.2448 48.5195V58.3895C89.2448 61.8818 86.5309 63.3581 83.7761 63.3581C82.8062 63.4309 81.835 63.2343 80.969 62.7898C80.1031 62.3453 79.3759 61.67 78.8671 60.8381L81.5183 59.2998C81.7321 59.7335 82.0729 60.0913 82.4949 60.3253C82.9169 60.5593 83.4 60.6583 83.8797 60.6092C84.1862 60.6518 84.4984 60.6247 84.7931 60.5299C85.0878 60.4351 85.3575 60.275 85.5822 60.0615C85.8069 59.8479 85.981 59.5864 86.0914 59.2963C86.2018 59.0061 86.2458 58.6948 86.2201 58.3853V57.435C85.8563 57.8818 85.3931 58.2368 84.8678 58.4715C84.3425 58.7062 83.7697 58.814 83.1954 58.7864C81.8288 58.7431 80.5326 58.1679 79.5811 57.1824C78.6297 56.197 78.0977 54.8786 78.0977 53.5065C78.0977 52.1343 78.6297 50.8159 79.5811 49.8305C80.5326 48.845 81.8288 48.2698 83.1954 48.2265C83.7697 48.1989 84.3425 48.3067 84.8678 48.5414C85.3931 48.7761 85.8563 49.1311 86.2201 49.5779V48.5174L89.2448 48.5195ZM86.2212 53.508C86.2421 53.0055 86.1126 52.5081 85.8494 52.08C85.5863 51.6519 85.2015 51.3126 84.7446 51.1058C84.2877 50.899 83.7796 50.8342 83.2857 50.9197C82.7917 51.0052 82.3346 51.237 81.9731 51.5854C81.6116 51.9339 81.3622 52.3829 81.2572 52.8747C81.1521 53.3665 81.1961 53.8787 81.3835 54.3452C81.5709 54.8117 81.8931 55.2113 82.3087 55.4925C82.7243 55.7737 83.2142 55.9236 83.7154 55.923C84.0419 55.9459 84.3695 55.8999 84.6772 55.788C84.9849 55.676 85.2658 55.5007 85.5019 55.2732C85.7379 55.0457 85.9239 54.7711 86.0478 54.467C86.1717 54.163 86.2307 53.8363 86.2212 53.508Z" fill="#232536"/>
<path d="M91.0045 53.7169C91.0002 52.6264 91.3185 51.559 91.919 50.6501C92.5196 49.7412 93.3754 49.0317 94.3781 48.6113C95.3808 48.1909 96.4853 48.0787 97.5517 48.2887C98.618 48.4988 99.5982 49.0218 100.368 49.7914C101.138 50.561 101.663 51.5426 101.877 52.6119C102.09 53.6812 101.983 54.7901 101.568 55.7981C101.153 56.8061 100.45 57.6678 99.5464 58.2742C98.6431 58.8806 97.5809 59.2042 96.4942 59.2042C95.7729 59.2125 95.0571 59.0764 94.3888 58.8038C93.7205 58.5312 93.113 58.1277 92.6019 57.6168C92.0908 57.1059 91.6863 56.4979 91.412 55.8283C91.1377 55.1587 90.9992 54.4409 91.0045 53.7169ZM98.8765 53.7169C98.8636 53.2469 98.7128 52.791 98.4431 52.4065C98.1734 52.0219 97.7968 51.7257 97.3602 51.5547C96.9237 51.3838 96.4466 51.3459 95.9887 51.4456C95.5308 51.5453 95.1123 51.7783 94.7856 52.1154C94.4589 52.4525 94.2384 52.8787 94.1518 53.3409C94.0652 53.8031 94.1162 54.2806 94.2985 54.7138C94.4809 55.147 94.7864 55.5166 95.1769 55.7765C95.5674 56.0364 96.0256 56.175 96.4942 56.175C96.8151 56.1836 97.1343 56.1254 97.4317 56.004C97.7291 55.8826 97.9981 55.7007 98.222 55.4698C98.4458 55.2388 98.6195 54.9639 98.7322 54.6622C98.8448 54.3605 98.894 54.0386 98.8765 53.7169Z" fill="#232536"/>
<path d="M103.433 45.7338C103.433 45.3637 103.542 45.0019 103.747 44.6942C103.952 44.3865 104.243 44.1467 104.584 44.0051C104.925 43.8635 105.3 43.8264 105.661 43.8986C106.023 43.9708 106.355 44.149 106.616 44.4107C106.877 44.6724 107.054 45.0058 107.126 45.3687C107.198 45.7317 107.161 46.1079 107.02 46.4498C106.879 46.7917 106.64 47.0839 106.333 47.2895C106.027 47.4951 105.666 47.6049 105.298 47.6049C104.805 47.6 104.333 47.4012 103.985 47.0514C103.636 46.7016 103.438 46.2285 103.433 45.7338ZM103.747 48.5194H106.855V58.9144H103.743L103.747 48.5194Z" fill="#232536"/>
<path d="M120.272 53.7169C120.308 54.4039 120.209 55.0913 119.979 55.7394C119.749 56.3876 119.394 56.9838 118.934 57.4937C118.474 58.0037 117.918 58.4173 117.298 58.7109C116.678 59.0044 116.006 59.1721 115.322 59.2042C114.746 59.2358 114.17 59.1383 113.637 58.9189C113.103 58.6995 112.625 58.3637 112.236 57.9358V63.0714H109.129V48.5194H112.236V49.4959C112.625 49.0683 113.103 48.7328 113.637 48.5136C114.17 48.2944 114.746 48.1971 115.322 48.2286C116.007 48.2606 116.678 48.4282 117.298 48.7217C117.918 49.0153 118.475 49.429 118.935 49.9391C119.395 50.4492 119.75 51.0456 119.98 51.6939C120.209 52.3423 120.309 53.0298 120.272 53.7169ZM117.165 53.7169C117.153 53.2304 116.998 52.7583 116.72 52.3597C116.442 51.9611 116.053 51.6537 115.601 51.476C115.15 51.2982 114.656 51.2581 114.182 51.3605C113.708 51.4629 113.275 51.7034 112.936 52.0518C112.598 52.4002 112.369 52.8411 112.279 53.3192C112.189 53.7974 112.241 54.2916 112.43 54.74C112.618 55.1884 112.934 55.5711 113.338 55.8402C113.742 56.1092 114.216 56.2527 114.701 56.2527C115.034 56.2675 115.366 56.2116 115.676 56.0886C115.986 55.9655 116.267 55.7782 116.499 55.5387C116.732 55.2993 116.911 55.0132 117.026 54.6993C117.141 54.3853 117.188 54.0505 117.165 53.7169Z" fill="#232536"/>
<path d="M129.861 55.7949C129.861 58.1857 127.791 59.2042 125.554 59.2042C124.65 59.2864 123.743 59.0946 122.949 58.6536C122.155 58.2126 121.511 57.5426 121.1 56.7304L123.792 55.1922C123.901 55.5676 124.135 55.8942 124.455 56.1174C124.775 56.3406 125.161 56.4469 125.55 56.4186C126.295 56.4186 126.668 56.1897 126.668 55.7749C126.668 54.6304 121.572 55.2342 121.572 51.6379C121.572 49.371 123.478 48.2286 125.632 48.2286C126.442 48.2029 127.244 48.3956 127.954 48.7868C128.665 49.178 129.258 49.7532 129.671 50.4525L127.02 51.8868C126.904 51.6145 126.71 51.3826 126.463 51.22C126.217 51.0573 125.928 50.9712 125.632 50.9722C125.094 50.9722 124.762 51.1822 124.762 51.5539C124.766 52.7394 129.861 51.9487 129.861 55.7949Z" fill="#232536"/>
<path d="M141.212 48.5194V58.9144H138.105V57.9369C137.747 58.3682 137.291 58.7081 136.777 58.9286C136.262 59.1491 135.702 59.2439 135.144 59.2053C133.052 59.2053 131.273 57.709 131.273 54.9003V48.5194H134.38V54.4435C134.354 54.6911 134.382 54.9414 134.463 55.177C134.543 55.4125 134.673 55.6278 134.845 55.8076C135.016 55.9875 135.225 56.1278 135.455 56.2186C135.686 56.3094 135.934 56.3486 136.182 56.3335C137.321 56.3335 138.108 55.6689 138.108 54.1926V48.5226L141.212 48.5194Z" fill="#232536"/>
<path d="M159.03 52.5316V58.9135H155.923V52.8014C155.923 51.7619 155.426 51.0973 154.432 51.0973C153.396 51.0973 152.815 51.8249 152.815 53.0513V58.9135H149.709V52.8014C149.709 51.7619 149.212 51.0973 148.217 51.0973C147.181 51.0973 146.601 51.8249 146.601 53.0513V58.9135H143.494V48.5185H146.601V49.474C146.924 49.0501 147.346 48.7139 147.831 48.4962C148.316 48.2785 148.848 48.1861 149.377 48.2276C149.909 48.2015 150.438 48.3141 150.914 48.5544C151.389 48.7948 151.794 49.1546 152.09 49.5989C152.434 49.1341 152.891 48.7645 153.416 48.5247C153.941 48.2849 154.519 48.1827 155.094 48.2276C157.472 48.2287 159.03 49.9328 159.03 52.5316Z" fill="#232536"/>
<path d="M161.658 48.4554C162.932 48.4554 163.964 47.4193 163.964 46.1412C163.964 44.8631 162.932 43.827 161.658 43.827C160.384 43.827 159.352 44.8631 159.352 46.1412C159.352 47.4193 160.384 48.4554 161.658 48.4554Z" fill="#232536"/>
</svg>
