<svg width="187" height="106" viewBox="0 0 187 106" fill="none" xmlns="http://www.w3.org/2000/svg">
<path d="M58.189 44.785H61.3446V60.102H58.189V44.785Z" fill="#232536"/>
<path d="M63.1118 54.855C63.1118 53.753 63.4365 52.6758 64.0447 51.7599C64.6529 50.8441 65.5173 50.1308 66.5282 49.7106C67.5391 49.2903 68.651 49.182 69.7231 49.3993C70.7952 49.6166 71.7791 50.1498 72.5501 50.9313C73.3211 51.7127 73.8446 52.7073 74.0541 53.7889C74.2636 54.8705 74.1497 55.9904 73.7269 57.0067C73.3041 58.023 72.5914 58.8899 71.6791 59.4976C70.7668 60.1052 69.6961 60.4263 68.6025 60.42C67.8773 60.4257 67.1581 60.2854 66.4873 60.0073C65.8165 59.7293 65.2076 59.3191 64.6962 58.8008C64.1848 58.2824 63.7812 57.6664 63.5091 56.9889C63.2371 56.3113 63.102 55.5858 63.1118 54.855ZM71.0218 54.855C71.0094 54.3799 70.8583 53.919 70.5873 53.53C70.3164 53.141 69.9376 52.8412 69.4985 52.668C69.0593 52.4948 68.5792 52.4559 68.1182 52.5562C67.6572 52.6565 67.2358 52.8916 66.9067 53.232C66.5776 53.5723 66.3554 54.003 66.2678 54.47C66.1803 54.937 66.2313 55.4196 66.4146 55.8575C66.5978 56.2954 66.9051 56.6692 67.298 56.9321C67.6909 57.1949 68.152 57.3352 68.6236 57.3354C68.9447 57.3417 69.2636 57.2812 69.5604 57.1576C69.8573 57.0341 70.1256 56.8502 70.3487 56.6174C70.5719 56.3846 70.7449 56.1079 70.8571 55.8047C70.9693 55.5014 71.0182 55.1781 71.0008 54.855H71.0218Z" fill="#232536"/>
<path d="M86.5788 49.608V59.5826C86.5788 63.1018 83.844 64.5964 81.0776 64.5964C80.1018 64.6771 79.1231 64.4817 78.2515 64.0323C77.3799 63.5828 76.6502 62.8971 76.1443 62.0524L78.8056 60.5048C79.0212 60.9429 79.3642 61.3045 79.7889 61.5412C80.2136 61.7779 80.6999 61.8786 81.1828 61.8298C81.4904 61.868 81.8026 61.8372 82.0971 61.7396C82.3915 61.6421 82.661 61.4801 82.8861 61.2654C83.1112 61.0507 83.2865 60.7885 83.3993 60.4976C83.5122 60.2067 83.5599 59.8942 83.5389 59.5826V58.618C83.1717 59.0666 82.7058 59.4229 82.1781 59.6584C81.6504 59.8939 81.0755 60.0023 80.4991 59.9748C79.1042 59.9748 77.7665 59.4164 76.7802 58.4224C75.7939 57.4285 75.2397 56.0804 75.2397 54.6748C75.2397 53.2691 75.7939 51.9211 76.7802 50.9271C77.7665 49.9332 79.1042 49.3748 80.4991 49.3748C81.0755 49.3473 81.6504 49.4556 82.1781 49.6912C82.7058 49.9267 83.1717 50.2829 83.5389 50.7316V49.6716L86.5788 49.608ZM83.5389 54.643C83.5599 54.1358 83.4299 53.634 83.1656 53.2019C82.9012 52.7698 82.5147 52.4273 82.0557 52.2184C81.5966 52.0095 81.086 51.9438 80.5896 52.0296C80.0932 52.1155 79.6336 52.349 79.27 52.7002C78.9063 53.0514 78.6552 53.5042 78.549 54.0004C78.4427 54.4965 78.4862 55.0134 78.6738 55.4844C78.8614 55.9555 79.1845 56.3593 79.6016 56.6438C80.0188 56.9283 80.5108 57.0805 81.0145 57.081C81.3431 57.1048 81.6731 57.059 81.9831 56.9463C82.293 56.8337 82.5761 56.6568 82.814 56.427C83.0519 56.1973 83.2394 55.9198 83.3642 55.6125C83.4891 55.3052 83.5486 54.9749 83.5389 54.643Z" fill="#232536"/>
<path d="M88.3563 54.855C88.3563 53.7539 88.6805 52.6776 89.2877 51.7622C89.895 50.8468 90.7581 50.1335 91.7677 49.7126C92.7774 49.2917 93.8883 49.1822 94.9598 49.3977C96.0313 49.6133 97.0153 50.1444 97.7872 50.9237C98.559 51.7031 99.0842 52.6957 99.296 53.7759C99.5079 54.8561 99.3971 55.9753 98.9775 56.992C98.5579 58.0087 97.8485 58.8771 96.9389 59.4873C96.0294 60.0975 94.9607 60.4221 93.8681 60.42C93.1414 60.4271 92.4207 60.288 91.7481 60.0107C91.0755 59.7334 90.4646 59.3236 89.9512 58.8053C89.4379 58.2869 89.0324 57.6705 88.7585 56.9922C88.4846 56.3139 88.3479 55.5873 88.3563 54.855ZM96.2663 54.855C96.2539 54.3795 96.1025 53.9182 95.8311 53.529C95.5596 53.1398 95.1803 52.84 94.7405 52.6671C94.3007 52.4942 93.8201 52.456 93.3588 52.5571C92.8976 52.6583 92.4762 52.8944 92.1475 53.2359C91.8189 53.5773 91.5975 54.0089 91.5111 54.4766C91.4248 54.9443 91.4773 55.4272 91.6621 55.8649C91.847 56.3027 92.1559 56.6757 92.5502 56.9373C92.9444 57.1988 93.4065 57.3374 93.8786 57.3354C94.1997 57.3417 94.5186 57.2812 94.8155 57.1577C95.1123 57.0342 95.3807 56.8503 95.6038 56.6175C95.8269 56.3847 95.9999 56.108 96.1121 55.8048C96.2243 55.5015 96.2732 55.1782 96.2558 54.855H96.2663Z" fill="#232536"/>
<path d="M100.842 46.7989C100.842 46.4257 100.952 46.0609 101.158 45.7507C101.364 45.4404 101.656 45.1985 101.998 45.0557C102.34 44.9129 102.717 44.8756 103.08 44.9484C103.443 45.0212 103.777 45.2009 104.039 45.4647C104.3 45.7286 104.479 46.0648 104.551 46.4308C104.623 46.7968 104.586 47.1762 104.444 47.521C104.303 47.8657 104.063 48.1604 103.755 48.3677C103.447 48.5751 103.085 48.6857 102.715 48.6857C102.22 48.6802 101.747 48.4796 101.397 48.127C101.047 47.7743 100.848 47.2976 100.842 46.7989ZM101.147 49.6079H104.303V60.1019H101.147V49.6079Z" fill="#232536"/>
<path d="M117.809 54.855C117.844 55.5529 117.742 56.251 117.509 56.909C117.275 57.5671 116.915 58.1721 116.449 58.6893C115.982 59.2065 115.419 59.6257 114.791 59.9227C114.164 60.2198 113.484 60.3887 112.791 60.42C112.203 60.4594 111.614 60.3645 111.068 60.1424C110.521 59.9203 110.032 59.5768 109.636 59.1374V64.3208H106.48V49.608H109.636V50.5938C110.032 50.1557 110.522 49.8137 111.069 49.5934C111.615 49.3731 112.204 49.2803 112.791 49.3218C113.481 49.3531 114.158 49.521 114.784 49.8161C115.409 50.1111 115.971 50.5274 116.437 51.0412C116.903 51.555 117.264 52.1562 117.499 52.8106C117.735 53.465 117.84 54.1597 117.809 54.855ZM114.653 54.855C114.641 54.3627 114.484 53.885 114.203 53.4818C113.923 53.0787 113.53 52.768 113.075 52.5887C112.62 52.4094 112.122 52.3695 111.645 52.4739C111.167 52.5784 110.731 52.8225 110.39 53.1758C110.05 53.5292 109.821 53.9759 109.731 54.46C109.641 54.9441 109.696 55.4441 109.887 55.8974C110.078 56.3506 110.398 56.7368 110.806 57.0077C111.214 57.2786 111.692 57.4221 112.181 57.4202C112.516 57.4345 112.85 57.3773 113.161 57.2525C113.472 57.1276 113.754 56.9379 113.987 56.6956C114.221 56.4534 114.401 56.1642 114.515 55.847C114.63 55.5298 114.677 55.1917 114.653 54.855Z" fill="#232536"/>
<path d="M127.412 56.9537C127.412 59.3705 125.309 60.3987 123.079 60.3987C122.169 60.4812 121.256 60.287 120.457 59.841C119.658 59.3951 119.011 58.7179 118.598 57.8971L121.311 56.3495C121.419 56.7278 121.652 57.0573 121.972 57.2831C122.292 57.5088 122.679 57.6171 123.068 57.5897C123.815 57.5897 124.194 57.3565 124.194 56.9325C124.194 55.7771 119.071 56.3919 119.071 52.7561C119.071 50.4665 120.985 49.3217 123.152 49.3217C123.976 49.2846 124.794 49.4729 125.52 49.8667C126.246 50.2605 126.853 50.8451 127.276 51.5583L124.562 52.9999C124.442 52.7265 124.246 52.4939 123.998 52.3302C123.749 52.1666 123.459 52.0789 123.163 52.0777C122.616 52.0777 122.29 52.2897 122.29 52.6607C122.29 53.8691 127.412 53.0741 127.412 56.9537Z" fill="#232536"/>
<path d="M138.846 49.608V60.102H135.69V59.1162C135.331 59.5526 134.876 59.8979 134.361 60.1244C133.846 60.3509 133.285 60.4521 132.724 60.42C130.62 60.42 128.821 58.9042 128.821 56.074V49.608H131.977V55.597C131.952 55.8474 131.981 56.1002 132.063 56.338C132.145 56.5758 132.277 56.793 132.45 56.9744C132.623 57.1558 132.833 57.2972 133.065 57.3888C133.298 57.4804 133.547 57.5201 133.797 57.505C134.933 57.505 135.732 56.8266 135.732 55.385V49.608H138.846Z" fill="#232536"/>
<path d="M156.728 53.6572V60.102H153.572V53.9328C153.572 52.8728 153.078 52.2156 152.078 52.2156C151.079 52.2156 150.448 52.947 150.448 54.1872V60.102H147.292V53.9328C147.292 52.8728 146.798 52.2156 145.799 52.2156C144.799 52.2156 144.168 52.947 144.168 54.1872V60.102H141.013V49.608H144.168V50.5726C144.495 50.1465 144.922 49.809 145.41 49.5906C145.899 49.3722 146.433 49.2799 146.966 49.3218C147.5 49.2938 148.032 49.4061 148.509 49.6476C148.987 49.8892 149.394 50.2518 149.691 50.6998C150.037 50.2318 150.496 49.8599 151.024 49.6189C151.552 49.3779 152.132 49.2757 152.709 49.3218C155.171 49.3218 156.728 51.039 156.728 53.6572Z" fill="#232536"/>
<path d="M39.3923 42.029V37.524H25.2974V68.476H39.3923V63.971C36.505 63.971 33.7359 62.8152 31.6942 60.7577C29.6525 58.7002 28.5055 55.9097 28.5055 53C28.5055 50.0904 29.6525 47.2998 31.6942 45.2424C33.7359 43.1849 36.505 42.029 39.3923 42.029Z" fill="#232536"/>
<path d="M39.3921 42.0291V63.9711C42.2794 63.9711 45.0485 62.8152 47.0902 60.7577C49.1319 58.7003 50.2789 55.9097 50.2789 53.0001C50.2789 50.0904 49.1319 47.2998 47.0902 45.2424C45.0485 43.1849 42.2794 42.0291 39.3921 42.0291Z" fill="#232536"/>
<path d="M159.378 49.5444C160.656 49.5444 161.692 48.5003 161.692 47.2124C161.692 45.9244 160.656 44.8804 159.378 44.8804C158.1 44.8804 157.064 45.9244 157.064 47.2124C157.064 48.5003 158.1 49.5444 159.378 49.5444Z" fill="#232536"/>
</svg>
