<svg width="113" height="27" viewBox="0 0 113 27" fill="none" xmlns="http://www.w3.org/2000/svg">
<path fill-rule="evenodd" clip-rule="evenodd" d="M11.6466 0.923828V4.64629C9.2608 4.64629 6.97271 5.60138 5.28569 7.30146C3.59867 9.00153 2.65091 11.3073 2.65091 13.7116C2.65091 16.1159 3.59867 18.4216 5.28569 20.1217C6.97271 21.8218 9.2608 22.7769 11.6466 22.7769V26.4994H0V0.923828H11.6466ZM29.7859 6.92399H27.1784V19.5804H29.7859V6.92399ZM32.0168 12.6867C31.5143 13.4434 31.246 14.3335 31.246 15.2441C31.2379 15.848 31.3495 16.4474 31.5743 17.0073C31.7991 17.5672 32.1325 18.0762 32.5551 18.5045C32.9777 18.9328 33.4809 19.2717 34.0351 19.5015C34.5894 19.7312 35.1836 19.8471 35.7829 19.8424C36.6865 19.8476 37.5713 19.5824 38.3251 19.0803C39.0789 18.5782 39.6678 17.8618 40.0172 17.0221C40.3666 16.1823 40.4606 15.2569 40.2875 14.3632C40.1144 13.4695 39.6819 12.6477 39.0448 12.002C38.4077 11.3562 37.5947 10.9157 36.7089 10.7361C35.823 10.5565 34.9042 10.646 34.0689 10.9933C33.2336 11.3405 32.5194 11.9299 32.0168 12.6867ZM37.423 14.1493C37.6469 14.4707 37.7717 14.8515 37.782 15.2441H37.7646C37.779 15.5111 37.7386 15.7782 37.6459 16.0288C37.5532 16.2794 37.4102 16.508 37.2258 16.7004C37.0415 16.8927 36.8197 17.0447 36.5744 17.1468C36.3292 17.2488 36.0656 17.2988 35.8003 17.2936C35.4106 17.2935 35.0296 17.1776 34.705 16.9604C34.3803 16.7432 34.1264 16.4343 33.975 16.0725C33.8236 15.7106 33.7815 15.3118 33.8538 14.926C33.9261 14.5401 34.1097 14.1843 34.3817 13.903C34.6536 13.6217 35.0018 13.4275 35.3827 13.3446C35.7636 13.2617 36.1604 13.2939 36.5232 13.437C36.8861 13.5801 37.1991 13.8279 37.423 14.1493ZM50.6367 10.9085V19.1505C50.6367 22.0584 48.3769 23.2934 46.0911 23.2934C45.2848 23.3601 44.476 23.1987 43.7559 22.8273C43.0357 22.4559 42.4327 21.8893 42.0147 21.1913L44.2137 19.9125C44.3919 20.2746 44.6753 20.5733 45.0263 20.7689C45.3772 20.9645 45.7789 21.0477 46.178 21.0074C46.4322 21.0389 46.6902 21.0135 46.9335 20.9329C47.1768 20.8523 47.3994 20.7185 47.5854 20.5411C47.7714 20.3636 47.9162 20.147 48.0095 19.9066C48.1028 19.6662 48.1422 19.408 48.1249 19.1505V18.3535C47.8214 18.7242 47.4364 19.0186 47.0004 19.2132C46.5644 19.4078 46.0894 19.4973 45.613 19.4746C44.4605 19.4746 43.3551 19.0132 42.5401 18.1919C41.7251 17.3706 41.2673 16.2567 41.2673 15.0952C41.2673 13.9337 41.7251 12.8198 42.5401 11.9985C43.3551 11.1773 44.4605 10.7159 45.613 10.7159C46.0894 10.6932 46.5644 10.7827 47.0004 10.9773C47.4364 11.1719 47.8214 11.4662 48.1249 11.837V10.9611L50.6367 10.9085ZM48.1249 15.069C48.1422 14.6499 48.0348 14.2352 47.8163 13.8782C47.5979 13.5212 47.2785 13.2382 46.8992 13.0656C46.5199 12.8929 46.0981 12.8386 45.6879 12.9096C45.2777 12.9805 44.8979 13.1735 44.5974 13.4637C44.297 13.7539 44.0895 14.128 44.0017 14.538C43.9139 14.948 43.9498 15.375 44.1048 15.7643C44.2598 16.1535 44.5268 16.4871 44.8715 16.7222C45.2162 16.9573 45.6227 17.0831 46.0389 17.0835C46.3105 17.1032 46.5831 17.0653 46.8393 16.9722C47.0954 16.8791 47.3293 16.7329 47.5259 16.5431C47.7225 16.3532 47.8773 16.124 47.9805 15.87C48.0837 15.6161 48.1329 15.3432 48.1249 15.069ZM52.8751 12.6885C52.3733 13.4449 52.1055 14.3343 52.1055 15.2441C52.0985 15.8492 52.2115 16.4496 52.4378 17.0101C52.6641 17.5706 52.9991 18.0799 53.4233 18.5082C53.8475 18.9365 54.3523 19.2751 54.908 19.5042C55.4638 19.7333 56.0594 19.8483 56.6598 19.8425C57.5626 19.8442 58.4457 19.576 59.1972 19.0718C59.9488 18.5676 60.535 17.85 60.8817 17.0099C61.2284 16.1698 61.32 15.245 61.1449 14.3524C60.9698 13.4599 60.5359 12.6397 59.8981 11.9957C59.2603 11.3518 58.4473 10.9129 57.5619 10.7348C56.6765 10.5567 55.7586 10.6472 54.9243 10.995C54.09 11.3428 53.3768 11.9321 52.8751 12.6885ZM58.2818 14.1485C58.5061 14.4701 58.6312 14.8512 58.6415 15.2441H58.6328C58.6472 15.5112 58.6067 15.7783 58.514 16.0289C58.4213 16.2795 58.2783 16.5081 58.094 16.7004C57.9096 16.8928 57.6879 17.0447 57.4426 17.1468C57.1973 17.2489 56.9338 17.2989 56.6685 17.2937C56.2784 17.2953 55.8966 17.1808 55.5708 16.9647C55.245 16.7485 54.9898 16.4403 54.837 16.0786C54.6843 15.7169 54.6409 15.3179 54.7123 14.9314C54.7836 14.545 54.9665 14.1883 55.2381 13.9062C55.5097 13.6241 55.8579 13.429 56.239 13.3454C56.6201 13.2618 57.0173 13.2934 57.3807 13.4363C57.7441 13.5791 58.0575 13.8269 58.2818 14.1485ZM62.4223 8.5875C62.4223 8.27915 62.513 7.97772 62.683 7.72133C62.853 7.46495 63.0946 7.26512 63.3773 7.14712C63.66 7.02912 63.9711 6.99824 64.2712 7.0584C64.5713 7.11856 64.8469 7.26704 65.0633 7.48508C65.2797 7.70312 65.427 7.98092 65.4867 8.28334C65.5464 8.58577 65.5157 8.89925 65.3987 9.18413C65.2816 9.46901 65.0833 9.7125 64.8288 9.88381C64.5744 10.0551 64.2753 10.1466 63.9693 10.1466C63.5604 10.142 63.1695 9.97628 62.8804 9.68489C62.5912 9.39349 62.4268 8.99958 62.4223 8.5875ZM62.6743 10.9086H65.2818V19.5797H62.6743V10.9086ZM76.1938 16.9412C76.3867 16.3975 76.4709 15.8207 76.4417 15.244C76.4674 14.6695 76.3805 14.0955 76.1861 13.5548C75.9916 13.014 75.6934 12.5172 75.3084 12.0927C74.9234 11.6681 74.4593 11.3241 73.9424 11.0804C73.4255 10.8366 72.866 10.6978 72.2959 10.6719C71.8107 10.6376 71.3242 10.7144 70.8726 10.8964C70.4211 11.0784 70.0162 11.361 69.6884 11.723V10.9084H67.0809V23.0656H69.6884V18.7825C70.0158 19.1456 70.4203 19.4295 70.8718 19.613C71.3233 19.7965 71.8101 19.8749 72.2959 19.8423C72.8683 19.8165 73.43 19.6769 73.9487 19.4315C74.4673 19.186 74.9327 18.8397 75.318 18.4123C75.7033 17.9849 76.001 17.485 76.1938 16.9412ZM73.4629 14.1094C73.6948 14.4425 73.824 14.8372 73.8342 15.244C73.8541 15.5223 73.8154 15.8016 73.7206 16.0637C73.6258 16.3258 73.4771 16.5648 73.2842 16.7649C73.0913 16.9651 72.8587 17.1219 72.6015 17.225C72.3443 17.3282 72.0683 17.3754 71.7917 17.3636C71.3879 17.3652 70.9926 17.2467 70.6554 17.0228C70.3182 16.799 70.054 16.4798 69.896 16.1053C69.738 15.7308 69.6933 15.3177 69.7673 14.9176C69.8413 14.5176 70.0309 14.1485 70.3122 13.8565C70.5935 13.5646 70.954 13.3628 71.3487 13.2765C71.7433 13.1902 72.1544 13.2232 72.5305 13.3714C72.9066 13.5195 73.2309 13.7763 73.4629 14.1094ZM84.3771 16.9786C84.3771 18.9756 82.6388 19.8252 80.7962 19.8252C80.0446 19.8934 79.2901 19.7328 78.63 19.3643C77.97 18.9959 77.4348 18.4363 77.0936 17.7581L79.336 16.4794C79.4248 16.7919 79.6174 17.0642 79.8817 17.2507C80.1459 17.4373 80.4656 17.5267 80.7875 17.5041C81.4046 17.5041 81.7175 17.3114 81.7175 16.9611C81.7175 16.6169 81.1674 16.4628 80.4638 16.2658C79.2157 15.9162 77.4847 15.4314 77.4847 13.5101C77.4847 11.6183 79.0666 10.6723 80.857 10.6723C81.5376 10.6416 82.2137 10.7972 82.8136 11.1226C83.4135 11.448 83.9147 11.931 84.2641 12.5204L82.0217 13.7116C81.9226 13.4856 81.7607 13.2934 81.5556 13.1582C81.3504 13.023 81.1108 12.9505 80.8657 12.9496C80.4137 12.9496 80.1443 13.1248 80.1443 13.4313C80.1443 13.789 80.6874 13.9342 81.3845 14.1207C82.6335 14.4548 84.3771 14.9212 84.3771 16.9786ZM93.8246 19.5796V10.9085H91.2519V15.682C91.2519 16.8732 90.5914 17.4337 89.6527 17.4337C89.4468 17.4462 89.2406 17.4134 89.0484 17.3377C88.8563 17.262 88.6827 17.1451 88.5397 16.9952C88.3968 16.8453 88.2878 16.6659 88.2204 16.4694C88.1529 16.2729 88.1286 16.064 88.1491 15.8571V10.9085H85.5416V16.2513C85.5416 18.5899 87.0279 19.8424 88.7662 19.8424C89.2299 19.8689 89.6934 19.7852 90.1191 19.5981C90.5448 19.411 90.921 19.1256 91.2172 18.765V19.5796H93.8246ZM108.6 14.2544V19.5798H105.993V14.4822C105.993 13.6063 105.584 13.0633 104.758 13.0633C103.933 13.0633 103.411 13.6676 103.411 14.6924V19.5798H100.804V14.4822C100.804 13.6063 100.395 13.0633 99.5696 13.0633C98.744 13.0633 98.2225 13.6676 98.2225 14.6924V19.5798H95.615V10.9086H98.2225V11.7057C98.4924 11.3535 98.8451 11.0747 99.2487 10.8942C99.6523 10.7138 100.094 10.6375 100.534 10.6721C100.975 10.6489 101.415 10.7417 101.809 10.9413C102.204 11.141 102.54 11.4406 102.785 11.8108C103.072 11.424 103.451 11.1167 103.887 10.9176C104.323 10.7185 104.803 10.634 105.28 10.6721C107.314 10.6721 108.6 12.091 108.6 14.2544ZM11.6466 4.64639V22.777C14.0325 22.777 16.3205 21.8219 18.0076 20.1218C19.6946 18.4218 20.6423 16.116 20.6423 13.7117C20.6423 11.3074 19.6946 9.00163 18.0076 7.30156C16.3205 5.60149 14.0325 4.64639 11.6466 4.64639ZM112.703 8.92963C112.703 9.99384 111.847 10.8566 110.791 10.8566C109.735 10.8566 108.878 9.99384 108.878 8.92963C108.878 7.86542 109.735 7.00271 110.791 7.00271C111.847 7.00271 112.703 7.86542 112.703 8.92963Z" fill="#C9C9C9"/>
</svg>
