<svg width="187" height="105" viewBox="0 0 187 105" fill="none" xmlns="http://www.w3.org/2000/svg">
<path d="M67.1826 46.2735H70.3382V59.01H67.1826V46.2735ZM71.5899 54.201C71.5899 51.051 73.5253 49.1715 76.5126 49.1715C79.4999 49.1715 81.4353 51.051 81.4353 54.201C81.4353 57.351 79.542 59.241 76.5126 59.241C73.4833 59.241 71.5899 57.4035 71.5899 54.201ZM78.2692 54.201C78.2692 52.4685 77.5855 51.45 76.5126 51.45C75.4397 51.45 74.7665 52.5 74.7665 54.201C74.7665 55.902 75.4292 56.931 76.5126 56.931C77.596 56.931 78.2692 55.965 78.2692 54.2115V54.201ZM82.624 59.6295H85.6533C85.7975 59.9492 86.0412 60.2139 86.3483 60.3842C86.6553 60.5545 87.0092 60.6212 87.3573 60.5745C88.5565 60.5745 89.1876 59.9235 89.1876 58.9785V57.2145H89.1245C88.873 57.7552 88.4651 58.2082 87.9532 58.5151C87.4414 58.8221 86.8491 58.9688 86.2529 58.9365C83.9493 58.9365 82.4241 57.183 82.4241 54.1695C82.4241 51.156 83.8757 49.2555 86.2949 49.2555C86.9099 49.2315 87.5175 49.3956 88.0363 49.7259C88.5552 50.0561 88.9606 50.5368 89.1981 51.1035V49.35H92.3537V58.905C92.3537 61.2045 90.3236 62.6325 87.3258 62.6325C84.5383 62.6325 82.8028 61.383 82.624 59.64V59.6295ZM89.1981 54.1905C89.1981 52.6575 88.4933 51.6915 87.3784 51.6915C86.2634 51.6915 85.5797 52.647 85.5797 54.1905C85.5797 55.734 86.2529 56.6055 87.3784 56.6055C88.5039 56.6055 89.1981 55.755 89.1981 54.201V54.1905ZM93.5423 54.1905C93.5423 51.0405 95.4777 49.161 98.465 49.161C101.452 49.161 103.398 51.0405 103.398 54.1905C103.398 57.3405 101.505 59.2305 98.465 59.2305C95.4251 59.2305 93.5423 57.4035 93.5423 54.201V54.1905ZM100.222 54.1905C100.222 52.458 99.5379 51.4395 98.465 51.4395C97.3921 51.4395 96.7715 52.5 96.7715 54.2115C96.7715 55.923 97.4342 56.9415 98.5071 56.9415C99.58 56.9415 100.222 55.965 100.222 54.2115V54.1905ZM104.597 47.061C104.589 46.743 104.676 46.4297 104.846 46.1608C105.016 45.8919 105.263 45.6795 105.554 45.5506C105.845 45.4217 106.169 45.3821 106.483 45.4367C106.797 45.4914 107.087 45.6379 107.318 45.8576C107.548 46.0774 107.708 46.3605 107.777 46.671C107.846 46.9816 107.821 47.3057 107.706 47.6022C107.59 47.8986 107.389 48.1541 107.128 48.3363C106.866 48.5185 106.557 48.6192 106.238 48.6255C106.027 48.64 105.815 48.6107 105.616 48.5395C105.416 48.4683 105.234 48.3568 105.08 48.2118C104.926 48.0669 104.803 47.8917 104.72 47.6973C104.637 47.5028 104.595 47.2934 104.597 47.082V47.061ZM104.597 49.371H107.753V59.01H104.597V49.371ZM119.208 54.1905C119.208 57.3405 117.809 59.136 115.41 59.136C114.796 59.1754 114.183 59.0254 113.657 58.7061C113.13 58.3869 112.714 57.9138 112.465 57.351H112.402V62.097H109.247V49.35H112.402V51.072H112.465C112.702 50.4999 113.11 50.0146 113.633 49.682C114.157 49.3495 114.77 49.1859 115.389 49.2135C117.809 49.2555 119.25 51.0615 119.25 54.2115L119.208 54.1905ZM116.052 54.1905C116.052 52.6575 115.347 51.681 114.243 51.681C113.138 51.681 112.434 52.668 112.423 54.1905C112.413 55.713 113.138 56.6895 114.243 56.6895C115.347 56.6895 116.052 55.734 116.052 54.2115V54.1905ZM124.625 49.1505C127.244 49.1505 128.832 50.3895 128.906 52.374H126.034C126.034 51.6915 125.466 51.261 124.593 51.261C123.72 51.261 123.331 51.597 123.331 52.0905C123.331 52.584 123.678 52.7415 124.383 52.8885L126.402 53.298C128.327 53.7075 129.148 54.4845 129.148 55.944C129.148 57.939 127.328 59.22 124.646 59.22C121.964 59.22 120.207 57.939 120.07 55.9755H123.11C123.205 56.6895 123.773 57.1095 124.698 57.1095C125.624 57.1095 126.045 56.805 126.045 56.301C126.045 55.797 125.75 55.692 124.993 55.5345L123.173 55.146C121.29 54.7575 120.302 53.76 120.302 52.29C120.323 50.4 122.016 49.1715 124.625 49.1715V49.1505ZM139.677 58.989H136.637V57.1935H136.574C136.407 57.7963 136.038 58.324 135.529 58.6888C135.02 59.0536 134.402 59.2336 133.776 59.199C133.297 59.2262 132.817 59.1504 132.369 58.9766C131.922 58.8029 131.517 58.5353 131.182 58.1919C130.847 57.8485 130.589 57.4373 130.427 56.9861C130.265 56.5349 130.202 56.0542 130.242 55.5765V49.35H133.397V54.852C133.397 55.9965 133.986 56.6055 134.965 56.6055C135.194 56.606 135.421 56.5575 135.63 56.4633C135.839 56.3691 136.025 56.2314 136.177 56.0594C136.328 55.8874 136.441 55.685 136.508 55.4659C136.574 55.2468 136.593 55.016 136.563 54.789V49.35H139.719L139.677 58.989ZM141.202 49.35H144.253V51.2085H144.316C144.483 50.6137 144.843 50.091 145.34 49.7224C145.837 49.3539 146.442 49.1601 147.061 49.1715C147.691 49.1212 148.316 49.3093 148.813 49.6984C149.31 50.0875 149.642 50.6491 149.743 51.2715H149.806C149.997 50.6425 150.392 50.0948 150.929 49.7146C151.466 49.3343 152.115 49.1433 152.773 49.1715C153.202 49.1571 153.629 49.233 154.027 49.3943C154.425 49.5555 154.784 49.7985 155.082 50.1075C155.379 50.4165 155.609 50.7845 155.754 51.1876C155.9 51.5908 155.959 52.02 155.928 52.4475V59.01H152.773V53.2875C152.773 52.2375 152.299 51.7545 151.416 51.7545C151.219 51.7529 151.024 51.7934 150.844 51.8734C150.664 51.9534 150.503 52.071 150.372 52.2183C150.242 52.3656 150.144 52.5391 150.087 52.7272C150.029 52.9153 150.012 53.1135 150.038 53.3085V59.01H147.04V53.2455C147.04 52.2795 146.567 51.7545 145.704 51.7545C145.505 51.7546 145.308 51.7968 145.126 51.8784C144.944 51.9601 144.782 52.0792 144.65 52.2281C144.518 52.3769 144.419 52.552 144.359 52.7419C144.3 52.9317 144.281 53.132 144.305 53.3295V59.01H141.15L141.202 49.35Z" fill="#232536"/>
<path d="M58.3573 46.851C57.822 45.6292 57.1135 44.4905 56.2536 43.47C54.9824 41.9163 53.3959 40.649 51.5987 39.7515C49.8015 38.854 47.8343 38.3466 45.8265 38.2627C43.8187 38.1788 41.8158 38.5203 39.9497 39.2647C38.0837 40.0092 36.3967 41.1397 34.9998 42.5818C33.603 44.024 32.5279 45.7451 31.8454 47.6318C31.1629 49.5186 30.8885 51.5283 31.0401 53.5286C31.1917 55.5289 31.766 57.4744 32.7251 59.2372C33.6842 61 35.0065 62.5401 36.6048 63.756C37.6304 64.5518 38.7636 65.1987 39.9707 65.6775C41.6632 66.3698 43.4746 66.7265 45.3037 66.7275C49.0792 66.7191 52.6975 65.2168 55.3652 62.5499C58.033 59.8829 59.5326 56.2689 59.5354 52.5C59.5382 50.5559 59.137 48.6324 58.3573 46.851ZM45.2932 41.1495C46.9357 41.1493 48.5584 41.5077 50.0476 42.1995C49.6844 42.3561 49.3026 42.4655 48.9116 42.525C47.6247 42.7109 46.4326 43.3073 45.5132 44.2251C44.5938 45.1429 43.9963 46.3329 43.81 47.6175C43.7283 48.3379 43.4 49.0081 42.8807 49.515C42.3614 50.0219 41.6828 50.3345 40.9595 50.4C39.6726 50.5859 38.4805 51.1823 37.5611 52.1001C36.6417 53.0179 36.0442 54.2079 35.858 55.4925C35.7949 56.1775 35.5021 56.8212 35.027 57.3195C34.2072 55.5904 33.839 53.6824 33.9565 51.7731C34.074 49.8637 34.6735 48.0151 35.6991 46.3992C36.7247 44.7833 38.1432 43.4527 39.8225 42.5311C41.5018 41.6096 43.3874 41.1271 45.3037 41.1285L45.2932 41.1495ZM36.5943 59.85C36.7205 59.7345 36.8467 59.6295 36.9729 59.5035C37.9087 58.5978 38.5094 57.4023 38.677 56.112C38.7449 55.3867 39.0693 54.7092 39.5921 54.201C40.0951 53.6783 40.7722 53.3571 41.4959 53.298C42.7828 53.112 43.9749 52.5156 44.8943 51.5978C45.8138 50.6801 46.4112 49.4901 46.5975 48.2055C46.643 47.4469 46.9691 46.7322 47.5126 46.2C48.0281 45.6874 48.7116 45.3779 49.4375 45.3285C50.6197 45.1661 51.7223 44.6415 52.5931 43.827C53.5846 44.6482 54.4247 45.636 55.0755 46.746C55.0355 46.7999 54.9897 46.8492 54.9387 46.893C54.4367 47.4203 53.7604 47.7485 53.0349 47.817C51.7467 47.9997 50.5528 48.595 49.6328 49.5134C48.7128 50.4318 48.1164 51.6236 47.9333 52.9095C47.8592 53.6323 47.537 54.3074 47.0213 54.8202C46.5057 55.3331 45.8282 55.6522 45.1038 55.7235C43.8132 55.908 42.6167 56.5032 41.6919 57.4206C40.7672 58.3381 40.1636 59.5288 39.9707 60.816C39.9141 61.3291 39.7376 61.8219 39.4553 62.2545C38.3761 61.6149 37.4096 60.8025 36.5943 59.85ZM45.2932 63.903C44.2258 63.9041 43.1636 63.7557 42.1376 63.462C42.4885 62.8089 42.7167 62.0971 42.8108 61.362C42.8845 60.6407 43.2052 59.967 43.7187 59.4543C44.2323 58.9417 44.9072 58.6216 45.6298 58.548C46.9185 58.3641 48.113 57.7687 49.0345 56.8507C49.956 55.9327 50.555 54.7416 50.7418 53.4555C50.8155 52.7342 51.1362 52.0605 51.6498 51.5478C52.1633 51.0352 52.8383 50.7151 53.5608 50.6415C54.5306 50.5156 55.455 50.1551 56.2536 49.5915C56.697 51.2693 56.7495 53.0262 56.4071 54.7274C56.0647 56.4286 55.3365 58.0289 54.2783 59.4056C53.2201 60.7822 51.8601 61.8986 50.3026 62.6691C48.7451 63.4396 47.0314 63.8437 45.2932 63.8505V63.903Z" fill="#232536"/>
</svg>
