<svg width="17" height="17" viewBox="0 0 17 17" fill="none" xmlns="http://www.w3.org/2000/svg">
<g clip-path="url(#clip0_1_1762)">
<path d="M5.69994 15.0225C11.7362 15.0225 15.0387 10.0203 15.0387 5.6837C15.0387 5.54308 15.0356 5.39933 15.0293 5.2587C15.6718 4.7941 16.2262 4.21863 16.6665 3.55933C16.0682 3.82553 15.4329 3.99938 14.7824 4.07495C15.4674 3.6644 15.9802 3.01944 16.2259 2.25964C15.5815 2.6415 14.8769 2.91087 14.1421 3.0562C13.6471 2.53017 12.9925 2.18187 12.2796 2.06516C11.5668 1.94845 10.8353 2.06983 10.1983 2.41053C9.56136 2.75122 9.05437 3.29226 8.75574 3.95C8.4571 4.60774 8.38346 5.34554 8.54619 6.04933C7.2415 5.98385 5.96513 5.64493 4.79983 5.05453C3.63452 4.46412 2.6063 3.63542 1.78182 2.62214C1.36277 3.34462 1.23454 4.19956 1.42319 5.01319C1.61184 5.82682 2.10321 6.53809 2.79744 7.00245C2.27626 6.9859 1.76649 6.84558 1.31025 6.59308V6.6337C1.30979 7.39189 1.5719 8.12685 2.05204 8.71364C2.53219 9.30043 3.20072 9.70283 3.944 9.85245C3.46121 9.98455 2.95449 10.0038 2.46307 9.9087C2.67281 10.5608 3.08089 11.1311 3.63035 11.54C4.17982 11.949 4.84325 12.1762 5.52807 12.19C4.36545 13.1032 2.92929 13.5985 1.45088 13.5962C1.1887 13.5958 0.92677 13.5797 0.666504 13.5481C2.16841 14.5116 3.91552 15.0234 5.69994 15.0225Z" fill="#232536"/>
</g>
<defs>
<clipPath id="clip0_1_1762">
<rect width="16" height="16" fill="white" transform="translate(0.666504 0.522461)"/>
</clipPath>
</defs>
</svg>
