<svg width="17" height="16" viewBox="0 0 17 16" fill="none" xmlns="http://www.w3.org/2000/svg">
<g clip-path="url(#clip0_1_203)">
<path d="M5.69994 14.5C11.7362 14.5 15.0387 9.4978 15.0387 5.16124C15.0387 5.02062 15.0356 4.87687 15.0293 4.73624C15.6718 4.27164 16.2262 3.69617 16.6665 3.03687C16.0682 3.30307 15.4329 3.47692 14.7824 3.55249C15.4674 3.14194 15.9802 2.49698 16.2259 1.73718C15.5815 2.11904 14.8769 2.38841 14.1421 2.53374C13.6471 2.00771 12.9925 1.65941 12.2796 1.5427C11.5668 1.42599 10.8353 1.54737 10.1983 1.88806C9.56137 2.22876 9.05437 2.7698 8.75574 3.42754C8.4571 4.08528 8.38346 4.82308 8.54619 5.52687C7.2415 5.46139 5.96513 5.12247 4.79983 4.53207C3.63452 3.94166 2.6063 3.11296 1.78182 2.09968C1.36277 2.82216 1.23454 3.6771 1.42319 4.49073C1.61184 5.30436 2.10321 6.01563 2.79744 6.47999C2.27626 6.46344 1.76649 6.32312 1.31025 6.07062V6.11124C1.30979 6.86943 1.5719 7.60439 2.05204 8.19118C2.53219 8.77797 3.20072 9.18037 3.944 9.32999C3.46121 9.46209 2.95449 9.48133 2.46307 9.38624C2.67281 10.0383 3.08089 10.6086 3.63035 11.0176C4.17982 11.4265 4.84325 11.6537 5.52807 11.6675C4.36545 12.5807 2.92929 13.0761 1.45088 13.0737C1.1887 13.0733 0.92677 13.0573 0.666504 13.0256C2.16841 13.9892 3.91552 14.5009 5.69994 14.5Z" fill="white"/>
</g>
<defs>
<clipPath id="clip0_1_203">
<rect width="16" height="16" fill="white" transform="translate(0.666504)"/>
</clipPath>
</defs>
</svg>
